<svg
        xmlns="http://www.w3.org/2000/svg"
        xmlns:xlink="http://www.w3.org/1999/xlink"
        style="isolation: isolate;"
        viewBox="0 0 1920 1280"
        width="1057.7"
        height="784.98"
      >
        <switch>
          <g>
            <g id="undraw_Ride_a_bicycle_2yok (2)">
              <g opacity="0.55">
                <linearGradient
                  id="_lgradient_0"
                  x1="0.004604598306288196"
                  y1="0.8537231661513396"
                  x2="0.7944159011400275"
                  y2="0.11472763596115909"
                  gradientTransform="matrix(1022.753,0,0,784.976,466.266,250.41)"
                  gradientUnits="userSpaceOnUse"
                >
                  <stop
                    offset="1.7391304347826086%"
                    stop-opacity="1"
                    style="stop-color: rgb(0, 221, 255);"
                  />
                  <stop
                    offset="98.69565217391305%"
                    stop-opacity="1"
                    style="stop-color: rgb(255, 0, 0);"
                  />
                </linearGradient>
                <path
                  d=" M 641.068 365.842 C 635.588 372.492 633.478 381.842 631.118 390.632 C 612.118 461.472 565.298 518.452 511.978 559.152 C 489.398 576.392 461.908 599.512 466.848 630.422 C 469.508 647.022 481.178 659.242 489.848 672.762 C 508.038 701.072 513.938 739.552 505.268 773.442 C 495.408 812.002 467.848 847.982 476.378 886.972 C 481.638 910.972 499.498 928.052 516.668 942.732 Q 556.848 977.062 599.588 1007.052 C 618.688 1020.452 639.008 1033.492 661.268 1035.192 C 680.868 1036.692 700.068 1029.242 718.678 1021.892 C 734.938 1015.462 751.608 1008.772 764.738 995.892 C 773.308 987.482 780.138 976.632 789.658 969.752 C 812.018 953.592 840.738 963.832 866.378 970.752 C 926.878 986.992 991.628 981.062 1049.198 954.012 C 1137.508 912.512 1204.818 825.362 1291.198 778.602 C 1328.338 758.492 1368.738 746.012 1403.128 720.112 C 1422.503 705.366 1439.153 687.348 1452.328 666.872 C 1478.328 626.762 1492.388 575.622 1488.328 525.562 C 1484.268 475.502 1461.518 427.262 1425.788 399.002 C 1387.538 368.752 1339.228 363.102 1295.708 344.942 C 1250.768 326.182 1210.788 293.942 1166.278 273.812 C 1093.331 240.913 1009.416 242.784 938.008 278.902 C 889.568 303.402 840.468 360.562 786.518 364.902 C 748.078 367.902 671.088 329.422 641.068 365.842 Z "
                  id="Path"
                  fill="url(#_lgradient_0)"
                />
              </g>
              <g id="left-wheel">
                <path
                  d=" M 686.393 964.504 L 680.123 866.564 L 679.993 866.354 L 673.673 868.554 L 644.593 953.404 L 598.343 920.614 L 672.013 867.204 L 672.083 866.994 L 672.503 866.844 L 677.253 863.394 L 600.013 820.084 L 581.093 840.884 L 584.093 860.384 L 672.913 862.004 L 672.913 864.004 L 582.433 862.384 L 579.013 840.244 L 604.913 811.784 L 643.663 766.584 L 644.353 768.454 L 652.553 759.454 L 683.013 764.914 L 683.013 763.704 L 685.013 763.764 L 685.013 765.274 L 730.373 773.394 L 688.083 858.004 L 681.913 862.474 L 681.913 862.974 L 681.913 863.534 L 779.713 829.454 L 768.103 920.664 L 685.103 867.794 L 682.183 866.154 L 731.123 945.034 L 686.393 964.504 Z  M 682.393 870.164 L 688.243 961.544 L 728.293 944.164 L 682.393 870.164 Z  M 601.813 920.594 L 643.603 950.224 L 670.943 870.484 L 601.813 920.594 Z  M 684.133 864.934 L 686.223 866.104 L 766.573 917.304 L 777.373 832.434 L 684.133 864.934 Z  M 677.033 857.734 L 679.543 861.784 L 679.983 861.464 L 682.983 766.934 L 653.243 761.614 L 645.083 770.614 L 677.033 857.734 Z  M 601.613 818.674 L 676.453 860.674 L 675.153 858.544 L 643.573 772.274 L 606.383 813.144 L 601.613 818.674 Z  M 685.013 767.284 L 682.013 860.004 L 686.533 856.724 L 727.443 774.904 L 685.013 767.284 Z "
                  id="Compound Path"
                  fill="rgb(83,84,97)"
                />
                <path
                  d=" M 796.083 837.464 C 792.072 819.645 783.953 803.009 772.373 788.884 C 768.074 783.635 763.333 778.764 758.203 774.324 C 717.63 739.295 658.509 736.118 614.417 766.599 C 570.324 797.079 552.409 853.51 570.846 903.842 C 589.283 954.174 639.41 985.68 692.758 980.468 C 746.106 975.256 789.187 934.642 797.533 881.694 C 798.477 875.633 798.952 869.508 798.953 863.374 C 798.96 854.658 797.997 845.968 796.083 837.464 L 796.083 837.464 Z  M 680.893 951.814 C 643.542 951.775 610.213 928.354 597.519 893.226 C 584.825 858.099 595.483 818.782 624.18 794.875 C 652.878 770.968 693.473 767.588 725.73 786.418 C 757.986 805.249 775.001 842.26 768.293 879.004 C 760.554 921.189 723.782 951.823 680.893 951.814 L 680.893 951.814 Z "
                  id="Compound Path"
                  fill="rgb(83,84,97)"
                />
                <circle
                  vector-effect="non-scaling-stroke"
                  cx="680.8927969832433"
                  cy="862.973974570597"
                  r="12.809999999999945"
                  id="Ellipse"
                  fill="rgb(83,84,97)"
                />
              </g>
              <g id="right-wheel">
                <path
                  d=" M 1112.583 964.904 L 1106.323 867.004 L 1106.193 866.794 L 1099.873 868.994 L 1070.783 953.804 L 1024.533 921.004 L 1098.223 867.594 L 1098.293 867.384 L 1098.713 867.234 L 1103.463 863.784 L 1026.223 820.474 L 1007.293 841.274 L 1010.293 860.774 L 1099.093 862.354 L 1099.093 864.354 L 1008.613 862.734 L 1005.213 840.624 L 1031.103 812.174 L 1069.823 767.004 L 1070.513 768.874 L 1078.713 759.874 L 1109.253 765.344 L 1109.253 764.134 L 1111.253 764.194 L 1111.253 765.704 L 1156.613 773.824 L 1114.283 858.474 L 1108.113 862.944 L 1108.113 863.444 L 1108.113 864.004 L 1205.923 829.924 L 1194.313 921.134 L 1111.313 868.264 L 1108.393 866.624 L 1157.333 945.514 L 1112.583 964.904 Z  M 1108.583 870.564 L 1114.433 961.944 L 1154.483 944.564 L 1108.583 870.564 Z  M 1028.013 921.004 L 1069.803 950.634 L 1097.143 870.894 L 1028.013 921.004 Z  M 1110.333 865.344 L 1112.423 866.514 L 1192.773 917.714 L 1203.573 832.844 L 1110.333 865.344 Z  M 1103.233 858.144 L 1105.743 862.194 L 1106.183 861.874 L 1109.183 767.344 L 1079.443 762.004 L 1071.283 771.004 L 1103.233 858.144 Z  M 1027.843 819.094 L 1102.683 861.094 L 1101.383 858.964 L 1069.803 772.694 L 1032.603 813.574 L 1027.843 819.094 Z  M 1111.213 767.704 L 1108.213 860.394 L 1112.733 857.114 L 1153.643 775.294 L 1111.213 767.704 Z "
                  id="Compound Path"
                  fill="rgb(83,84,97)"
                />
                <path
                  d=" M 1107.493 746.124 C 1096.879 746.112 1086.313 747.538 1076.083 750.364 C 1070.806 751.819 1065.64 753.647 1060.623 755.834 C 1005.254 779.836 977.009 841.826 995.228 899.357 C 1013.446 956.889 1072.225 991.32 1131.317 979.076 C 1190.409 966.831 1230.667 911.878 1224.524 851.844 C 1218.382 791.81 1167.83 746.148 1107.483 746.124 L 1107.493 746.124 Z  M 1107.093 952.214 C 1065.307 952.197 1029.177 923.069 1020.298 882.237 C 1011.418 841.405 1032.187 799.903 1070.193 782.534 C 1074.885 780.386 1079.757 778.656 1084.753 777.364 C 1118.091 768.71 1153.427 780.104 1175.431 806.602 C 1197.435 833.099 1202.142 869.927 1187.511 901.108 C 1172.879 932.288 1141.546 952.204 1107.103 952.214 L 1107.093 952.214 Z "
                  id="Compound Path"
                  fill="rgb(83,84,97)"
                />
                <circle
                  vector-effect="non-scaling-stroke"
                  cx="1107.0927969832433"
                  cy="863.3739745705969"
                  r="12.809999999999945"
                  id="Ellipse"
                  fill="rgb(83,84,97)"
                />
              </g>
              <g id="man-bike">
                <rect
                  x="760.136"
                  y="778.007"
                  width="60"
                  height="19"
                  transform="matrix(0.712,0.702,-0.702,0.712,780.879,-328.018)"
                  id="Rectangle"
                  fill="rgb(255,0,4)"
                />
                <g opacity="0.1">
                  <rect
                    x="760.136"
                    y="778.007"
                    width="60"
                    height="19"
                    transform="matrix(0.712,0.702,-0.702,0.712,780.879,-328.018)"
                    id="Rectangle"
                    fill="rgb(0,0,0)"
                  />
                </g>
                <path
                  d=" M 785.643 739.504 C 785.643 739.504 810.433 726.424 820.013 718.004 C 825.78 712.958 831.981 708.431 838.543 704.474 L 869.643 685.544 L 934.643 680.544 L 937.643 691.544 C 937.643 691.544 942.643 707.544 892.643 721.544 C 892.643 721.544 817.643 757.544 817.643 757.544 C 817.643 757.544 785.643 768.504 785.643 739.504 Z "
                  id="Path"
                  fill="rgb(219,139,139)"
                />
                <g opacity="0.1">
                  <path
                    d=" M 820.293 755.374 C 818.523 756.724 817.643 757.504 817.643 757.504 C 817.643 757.504 785.643 768.504 785.643 739.504 C 785.643 739.504 787.193 738.684 789.643 737.314 C 794.676 745.51 803.605 750.504 813.223 750.504 L 816.613 750.504 L 820.293 755.374 Z "
                    id="Path"
                    fill="rgb(0,0,0)"
                  />
                </g>
                <g opacity="0.05">
                  <path
                    d=" M 936.703 697.064 C 933.923 702.954 924.333 712.634 892.643 721.504 C 852.033 732.874 827.913 749.504 820.293 755.374 C 818.523 756.724 817.643 757.504 817.643 757.504 C 817.643 757.504 785.643 768.504 785.643 739.504 C 785.643 739.504 787.193 738.684 789.643 737.314 C 797.073 733.244 812.803 724.314 819.983 717.964 C 825.749 712.917 831.949 708.389 838.513 704.434 L 869.613 685.504 L 881.193 684.614 L 934.613 680.504 L 937.613 691.504 C 937.613 691.504 938.313 693.654 936.703 697.064 Z "
                    id="Path"
                    fill="rgb(0,0,0)"
                  />
                </g>
                <path
                  d=" M 786.143 733.004 L 759.643 750.504 L 837.243 815.504 C 837.243 815.504 848.643 808.504 842.643 800.504 C 842.643 800.504 822.643 783.504 821.643 759.504 L 815.643 751.504 L 812.253 751.504 C 800.505 751.506 790.036 744.088 786.143 733.004 Z "
                  id="Path"
                  fill="rgb(71,39,39)"
                />
                <g opacity="0.1">
                  <path
                    d=" M 936.703 697.064 C 920.703 689.334 881.643 688.504 881.643 688.504 L 881.223 684.614 L 934.643 680.504 L 937.643 691.504 C 937.643 691.504 938.313 693.654 936.703 697.064 Z "
                    id="Path"
                    fill="rgb(0,0,0)"
                  />
                </g>
                <path
                  d=" M 881.643 686.504 C 881.643 686.504 928.643 687.504 940.643 697.504 L 934.643 576.504 L 869.643 576.504 L 881.643 686.504 Z "
                  id="Path"
                  fill="rgb(171,177,209)"
                />
                <g opacity="0.05">
                  <path
                    d=" M 881.643 686.004 C 881.643 686.004 928.643 687.004 940.643 697.004 L 934.643 576.004 L 869.643 576.004 L 881.643 686.004 Z "
                    id="Path"
                    fill="rgb(0,0,0)"
                  />
                </g>
                <path
                  d=" M 919.403 612.464 C 919.403 612.464 1037.053 608.464 1039.453 623.674 C 1039.453 623.674 921.803 632.474 921.803 632.474 C 921.803 632.474 912.203 622.864 919.403 612.464 Z "
                  id="Path"
                  fill="rgb(83,84,97)"
                />
                <g opacity="0.05">
                  <path
                    d=" M 919.403 612.464 C 919.403 612.464 1037.053 608.464 1039.453 623.674 C 1039.453 623.674 921.803 632.474 921.803 632.474 C 921.803 632.474 912.203 622.864 919.403 612.464 Z "
                    id="Path"
                    fill="rgb(0,0,0)"
                  />
                </g>
                <path
                  d=" M 840.973 936.614 C 840.973 936.614 840.973 936.614 840.973 936.614 C 840.973 936.614 840.973 936.614 840.973 936.614 C 840.973 936.614 840.973 936.614 840.973 936.614 C 840.973 936.614 840.973 936.614 840.973 936.614 Z "
                  id="Ellipse"
                  fill="none"
                  vector-effect="non-scaling-stroke"
                  stroke-width="1"
                  stroke="rgb(193,39,45)"
                  stroke-linejoin="miter"
                  stroke-linecap="butt"
                  stroke-miterlimit="10"
                />
                <rect
                  x="803.353"
                  y="673.294"
                  width="20.81"
                  height="180.88"
                  transform="matrix(1,0,0,1,0,0)"
                  id="Rectangle"
                  fill="rgb(255,0,4)"
                />
                <g opacity="0.1">
                  <path
                    d=" M 824.163 673.284 L 824.163 687.214 C 817.243 688.114 810.163 688.684 803.353 688.904 L 803.353 673.284 L 824.163 673.284 Z "
                    id="Path"
                    fill="rgb(0,0,0)"
                  />
                </g>
                <path
                  d=" M 822.603 658.294 C 819.683 658.068 816.778 657.678 813.903 657.124 C 802.623 654.964 774.183 650.434 766.533 658.124 C 756.933 667.724 760.133 684.534 785.743 686.934 C 811.353 689.334 855.373 682.934 864.183 673.324 C 864.183 673.284 848.253 660.264 822.603 658.294 Z "
                  id="Path"
                  fill="rgb(83,84,97)"
                />
                <path
                  d=" M 818.563 722.914 L 1037.063 654.884 L 1044.263 671.694 L 820.163 748.524 L 818.563 722.914 L 818.563 722.914 Z "
                  id="Path"
                  fill="rgb(255,0,4)"
                />
                <path
                  d=" M 883.393 830.164 L 1041.063 674.894 L 1049.863 687.694 L 899.393 844.564 L 883.393 830.164 L 883.393 830.164 Z "
                  id="Path"
                  fill="rgb(255,0,4)"
                />
                <g opacity="0.1">
                  <path
                    d=" M 1084.743 777.364 C 1079.747 778.656 1074.875 780.386 1070.183 782.534 L 1060.623 755.824 C 1065.64 753.637 1070.806 751.809 1076.083 750.354 L 1084.743 777.364 Z "
                    id="Path"
                    fill="rgb(0,0,0)"
                  />
                </g>
                <path
                  d=" M 1111.493 855.774 L 1100.293 862.174 L 1022.153 643.844 L 1018.653 634.074 L 1037.063 623.664 L 1041.673 638.044 L 1111.493 855.774 L 1111.493 855.774 Z "
                  id="Path"
                  fill="rgb(255,0,4)"
                />
                <g opacity="0.1">
                  <path
                    d=" M 1041.673 638.044 L 1022.153 643.844 L 1018.653 634.074 L 1037.063 623.664 L 1041.673 638.044 L 1041.673 638.044 Z "
                    id="Path"
                    fill="rgb(0,0,0)"
                  />
                </g>
                <path
                  d=" M 922.603 654.884 L 1032.253 617.264 C 1032.253 617.264 1051.463 619.664 1044.253 635.674 L 933.813 668.484 C 933.813 668.484 917.013 670.084 922.603 654.884 Z "
                  id="Path"
                  fill="rgb(83,84,97)"
                />
                <g opacity="0.1">
                  <path
                    d=" M 798.953 863.374 C 798.952 869.508 798.477 875.633 797.533 881.694 C 787.933 881.004 778.013 880.004 768.293 879.004 C 770.452 867.113 770.183 854.908 767.503 843.124 C 776.973 841.124 786.643 839.214 796.083 837.484 C 797.995 845.981 798.958 854.664 798.953 863.374 L 798.953 863.374 Z "
                    id="Path"
                    fill="rgb(0,0,0)"
                  />
                </g>
                <g opacity="0.1">
                  <path
                    d=" M 824.163 832.894 L 824.163 854.164 L 803.353 854.164 L 803.353 836.164 C 810.553 834.914 817.553 833.804 824.163 832.894 Z "
                    id="Path"
                    fill="rgb(0,0,0)"
                  />
                </g>
                <path
                  d=" M 689.703 863.004 C 689.703 863.004 857.783 819.004 871.383 835.794 C 884.983 852.584 899.393 875.004 857.013 883.004 C 814.633 891.004 686.533 869.394 686.533 869.394 L 689.703 863.004 Z "
                  id="Path"
                  fill="rgb(255,0,4)"
                />
                <g opacity="0.1">
                  <path
                    d=" M 772.373 788.884 L 751.013 808.434 C 747.23 803.578 742.954 799.127 738.253 795.154 L 758.193 774.324 C 763.327 778.763 768.071 783.634 772.373 788.884 L 772.373 788.884 Z "
                    id="Path"
                    fill="rgb(0,0,0)"
                  />
                </g>
                <path
                  d=" M 684.103 854.174 L 809.753 722.914 L 813.763 753.324 L 690.503 866.174 L 684.103 854.174 L 684.103 854.174 Z "
                  id="Path"
                  fill="rgb(255,0,4)"
                />
                <g opacity="0.1">
                  <circle
                    vector-effect="non-scaling-stroke"
                    cx="682.5027969832433"
                    cy="862.973974570597"
                    r="12.809999999999945"
                    id="Ellipse"
                    fill="rgb(0,0,0)"
                  />
                </g>
                <g opacity="0.1">
                  <circle
                    vector-effect="non-scaling-stroke"
                    cx="1106.2927969832433"
                    cy="861.7739745705969"
                    r="12.809999999999945"
                    id="Ellipse"
                    fill="rgb(0,0,0)"
                  />
                </g>
                <g opacity="0.1">
                  <circle
                    vector-effect="non-scaling-stroke"
                    cx="879.3827969832435"
                    cy="850.1739745705969"
                    r="25.610000000000014"
                    id="Ellipse"
                    fill="rgb(0,0,0)"
                  />
                </g>
                <circle
                  vector-effect="non-scaling-stroke"
                  cx="880.9927969832434"
                  cy="850.1739745705969"
                  r="25.610000000000014"
                  id="Ellipse"
                  fill="rgb(83,84,97)"
                />
                <path
                  d="M 874.147 848.256 L 874.155 848.25 C 877.161 846.002 881.425 846.618 883.673 849.623 L 903.999 876.804 C 906.247 879.809 905.631 884.074 902.626 886.322 L 902.618 886.328 C 899.612 888.575 895.347 887.96 893.1 884.954 L 872.774 857.774 C 870.526 854.769 871.141 850.504 874.147 848.256 Z"
                  style="stroke: none; fill: #ff0004; stroke-miterlimit: 10;"
                />
                <path
                  d=" M 996.643 494.504 L 994.263 524.614 C 993.989 528.428 994.039 532.258 994.413 536.064 C 994.723 539.434 994.413 545.334 991.113 554.334 C 986.876 565.831 984.686 577.981 984.643 590.234 L 984.643 624.504 L 961.643 620.504 C 961.643 620.504 962.643 572.504 958.643 564.504 C 958.643 564.504 961.643 485.504 961.643 485.504 L 996.643 494.504 Z "
                  id="Path"
                  fill="rgb(219,139,139)"
                />
                <g opacity="0.05">
                  <path
                    d=" M 995.463 509.424 L 994.263 524.614 C 993.992 528.425 994.046 532.252 994.423 536.054 C 994.733 539.424 994.423 545.324 991.123 554.334 C 986.886 565.831 984.696 577.981 984.653 590.234 L 984.653 624.504 L 961.653 620.504 C 961.653 620.504 962.653 572.504 958.653 564.504 C 955.823 558.834 958.503 521.564 960.313 500.294 C 961.063 491.544 961.653 485.504 961.653 485.504 L 996.653 494.504 L 995.463 509.424 Z "
                    id="Path"
                    fill="rgb(0,0,0)"
                  />
                </g>
                <path
                  d=" M 882.663 724.504 L 874.013 773.704 C 872.922 780.273 871.249 786.732 869.013 793.004 C 863.943 806.864 867.183 826.294 869.643 836.894 C 870.733 841.574 871.643 844.534 871.643 844.534 L 845.643 858.534 L 837.643 852.534 L 837.643 848.534 L 836.643 759.534 C 830.643 745.534 832.643 724.534 836.643 716.534 C 837.78 713.906 838.58 711.144 839.023 708.314 C 841.023 697.594 841.643 682.534 841.643 682.534 C 841.643 682.534 857.643 655.534 876.643 673.534 C 883.643 680.164 886.303 688.834 886.863 697.134 C 887.843 711.344 882.663 724.504 882.663 724.504 Z "
                  id="Path"
                  fill="rgb(219,139,139)"
                />
                <g opacity="0.1">
                  <path
                    d=" M 886.863 697.104 C 872.993 705.344 848.863 707.674 839.023 708.284 C 841.023 697.564 841.643 682.504 841.643 682.504 C 841.643 682.504 857.643 655.504 876.643 673.504 C 883.643 680.134 886.303 688.804 886.863 697.104 Z "
                    id="Path"
                    fill="rgb(0,0,0)"
                  />
                </g>
                <path
                  d=" M 920.643 672.504 C 910.009 678.167 899.96 684.866 890.643 692.504 C 874.643 705.504 834.643 706.504 834.643 706.504 L 834.643 691.504 C 835.643 673.504 818.643 653.504 795.643 597.504 C 780.953 561.744 785.023 541.504 789.883 531.504 C 792.643 525.854 795.643 523.504 795.643 523.504 L 920.643 547.504 L 925.113 560.904 L 934.643 589.504 C 934.643 589.504 899.643 591.504 893.643 594.504 C 893.643 594.504 891.643 624.504 891.643 624.504 C 885.643 652.504 920.643 672.504 920.643 672.504 Z "
                  id="Path"
                  fill="rgb(171,177,209)"
                />
                <g opacity="0.1">
                  <path
                    d=" M 996.643 494.504 L 995.463 509.424 C 978.063 514.424 965.643 498.504 965.643 498.504 C 963.828 498.991 962.044 499.588 960.303 500.294 C 961.053 491.544 961.643 485.504 961.643 485.504 L 996.643 494.504 Z "
                    id="Path"
                    fill="rgb(0,0,0)"
                  />
                </g>
                <g opacity="0.1">
                  <path
                    d=" M 925.113 560.904 C 924.643 565.574 924.643 568.504 924.643 568.504 C 924.643 568.504 901.643 587.504 862.643 558.504 C 823.643 529.504 788.643 537.504 788.643 537.504 C 788.643 537.504 789.053 535.184 789.883 531.504 C 792.643 525.854 795.643 523.504 795.643 523.504 L 920.643 547.504 L 925.113 560.904 Z "
                    id="Path"
                    fill="rgb(0,0,0)"
                  />
                </g>
                <path
                  d=" M 1010.123 455.454 C 1007.513 475.804 1006.643 501.454 1006.643 501.454 C 983.643 519.454 965.643 496.454 965.643 496.454 C 943.923 502.284 933.713 521.294 928.903 537.884 C 926.327 546.858 924.895 556.121 924.643 565.454 C 924.643 565.454 918.563 570.454 907.363 571.454 C 896.773 572.344 881.593 569.584 862.643 555.454 C 823.643 526.454 788.643 534.454 788.643 534.454 C 788.643 534.454 795.643 494.454 811.643 482.454 C 827.643 470.454 839.643 455.454 859.643 409.454 C 879.643 363.454 920.643 374.454 920.643 374.454 C 920.643 374.454 922.643 365.454 959.643 374.454 C 968.655 376.816 976.996 381.235 984.013 387.364 C 1003.803 404.004 1013.403 429.814 1010.123 455.454 Z "
                  id="Path"
                  fill="rgb(255,255,255)"
                />
                <path
                  d=" M 973.013 397.004 C 972.963 398.334 972.853 399.814 972.673 401.464 C 970.673 419.464 968.673 417.464 946.673 421.464 C 932.993 423.954 925.883 412.524 922.463 403.524 C 921.225 400.264 920.291 396.896 919.673 393.464 L 967.673 385.464 C 967.673 385.464 973.423 383.854 973.013 397.004 Z "
                  id="Path"
                  fill="rgb(219,139,139)"
                />
                <g opacity="0.05">
                  <path
                    d=" M 928.903 537.934 C 926.327 546.908 924.895 556.171 924.643 565.504 C 924.643 565.504 918.563 570.504 907.363 571.504 C 907.047 570.867 906.806 570.196 906.643 569.504 C 904.643 560.504 889.643 544.504 889.643 544.504 C 879.643 535.504 877.643 519.504 877.643 519.504 L 861.143 471.004 L 855.643 466.504 C 855.643 466.504 878.643 448.504 898.643 463.504 C 898.643 463.504 912.643 510.504 912.643 510.504 L 916.643 521.504 C 920.793 525.004 925.013 531.174 928.903 537.934 Z "
                    id="Path"
                    fill="rgb(0,0,0)"
                  />
                </g>
                <path
                  d=" M 858.643 465.504 L 880.643 518.504 C 880.643 518.504 882.643 534.504 892.643 543.504 C 892.643 543.504 907.643 559.504 909.643 568.504 C 911.643 577.504 939.643 601.504 939.643 601.504 C 939.643 601.504 965.643 625.504 967.643 634.504 C 967.643 634.504 991.643 641.504 988.643 655.504 C 988.643 655.504 1006.643 637.504 988.643 620.504 C 970.643 603.504 946.643 568.504 946.643 568.504 C 946.643 568.504 932.643 531.504 919.643 520.504 L 915.643 509.504 C 915.643 509.504 921.643 477.504 901.643 462.504 C 881.643 447.504 858.643 465.504 858.643 465.504 Z "
                  id="Path"
                  fill="rgb(219,139,139)"
                />
                <g opacity="0.1">
                  <path
                    d=" M 871.643 844.504 L 845.643 858.504 L 837.643 852.504 L 837.643 848.504 C 846.627 847.866 855.355 845.232 863.193 840.794 C 865.593 839.434 867.853 838.094 869.663 836.914 C 870.713 841.544 871.643 844.504 871.643 844.504 Z "
                    id="Path"
                    fill="rgb(0,0,0)"
                  />
                </g>
                <g opacity="0.1">
                  <path
                    d=" M 901.643 423.504 L 915.643 478.504 C 915.643 478.504 872.643 485.504 863.643 478.504 C 863.643 478.504 837.643 469.504 837.643 469.504 C 837.643 469.504 855.643 417.504 865.643 411.504 C 875.643 405.504 901.643 423.504 901.643 423.504 Z "
                    id="Path"
                    fill="rgb(0,0,0)"
                  />
                </g>
                <path
                  d=" M 901.643 421.504 L 915.643 476.504 C 915.643 476.504 872.643 483.504 863.643 476.504 C 863.643 476.504 837.643 467.504 837.643 467.504 C 837.643 467.504 855.643 415.504 865.643 409.504 C 875.643 403.504 901.643 421.504 901.643 421.504 Z "
                  id="Path"
                  fill="rgb(255,255,255)"
                />
                <g opacity="0.1">
                  <path
                    d=" M 973.013 396.004 C 967.352 403.818 958.716 408.949 949.146 410.183 C 939.576 411.417 929.921 408.646 922.463 402.524 C 921.225 399.264 920.291 395.896 919.673 392.464 L 967.673 384.464 C 967.673 384.464 973.423 382.854 973.013 396.004 Z "
                    id="Path"
                    fill="rgb(0,0,0)"
                  />
                </g>
                <path
                  d=" M 979.643 374.504 C 979.643 393.834 963.973 409.504 944.643 409.504 C 925.313 409.504 909.643 393.834 909.643 374.504 C 909.643 373.924 909.643 373.344 909.643 372.764 C 910.123 353.434 926.183 338.153 945.513 338.634 C 964.843 339.114 980.123 355.174 979.643 374.504 L 979.643 374.504 Z "
                  id="Path"
                  fill="rgb(219,139,139)"
                />
                <g opacity="0.1">
                  <path
                    d=" M 979.643 374.504 C 979.646 377.73 979.202 380.94 978.323 384.044 C 975.617 384.634 972.796 384.375 970.243 383.304 C 966.503 381.834 963.293 379.304 959.703 377.484 C 949.593 372.364 937.563 373.374 926.363 375.064 C 920.803 375.904 914.493 376.684 910.123 373.144 C 909.972 373.025 909.829 372.899 909.693 372.764 C 910.173 353.434 926.233 338.153 945.563 338.634 C 964.893 339.114 980.173 355.174 979.693 374.504 L 979.643 374.504 Z "
                    id="Path"
                    fill="rgb(0,0,0)"
                  />
                </g>
                <rect
                  x="854.143"
                  y="878.004"
                  width="60"
                  height="19"
                  transform="matrix(1,0,0,1,0,0)"
                  id="Rectangle"
                  fill="rgb(255,0,4)"
                />
                <g opacity="0.1">
                  <rect
                    x="854.143"
                    y="878.004"
                    width="60"
                    height="19"
                    transform="matrix(1,0,0,1,0,0)"
                    id="Rectangle"
                    fill="rgb(0,0,0)"
                  />
                </g>
                <path
                  d=" M 863.153 842.744 C 868.523 839.744 873.233 836.744 873.643 835.504 C 873.643 835.504 887.193 849.804 899.263 854.244 C 903.321 855.743 907.207 857.674 910.853 860.004 C 915.633 863.004 922.453 866.534 928.643 866.534 C 928.643 866.534 942.643 878.534 915.643 880.534 C 888.643 882.534 825.643 875.534 825.643 875.534 L 829.643 850.534 L 829.643 850.534 C 841.33 851.219 852.966 848.514 863.153 842.744 Z "
                  id="Path"
                  fill="rgb(71,39,39)"
                />
                <g opacity="0.05">
                  <path
                    d=" M 816.143 482.004 C 816.143 482.004 842.143 489.004 850.143 507.004 C 850.143 507.004 879.783 528.294 879.783 528.294"
                    id="Path"
                    fill="rgb(0,0,0)"
                  />
                </g>
              </g>
              <g id="hat">
                <path
                  d=" M 884.323 352.854 C 886.453 359.534 896.683 359.744 901.933 364.664 C 904.663 367.224 905.933 371.004 908.933 373.284 C 913.103 376.464 919.123 375.764 924.433 375.004 C 935.123 373.484 946.603 372.574 956.243 377.184 C 959.663 378.814 962.733 381.094 966.303 382.424 C 969.873 383.754 974.303 383.914 977.203 381.554 C 979.523 379.664 980.373 376.554 982.473 374.474 C 984.103 372.834 986.373 371.914 988.233 370.474 C 992.313 367.394 994.073 362.374 995.233 357.574 C 997.633 347.694 998.323 337.044 994.233 327.674 C 990.143 318.304 980.303 310.674 969.563 311.164 C 966.273 311.314 963.063 312.164 959.783 312.524 C 951.233 313.394 942.783 310.524 934.203 310.034 C 931.714 309.731 929.189 310.076 926.873 311.034 C 925.126 312.005 923.619 313.355 922.463 314.984 C 918.535 320.129 915.845 326.111 914.603 332.464 C 913.603 337.254 913.553 341.594 907.683 342.334 C 901.013 343.214 879.813 338.724 884.323 352.854 Z "
                  id="Path"
                  fill="rgb(71,39,39)"
                />
              </g>
            </g>
          </g>
        </switch>
      </svg>